<svg width="3415" height="1362" viewBox="0 0 3415 1362" fill="none" xmlns="http://www.w3.org/2000/svg">
<path d="M1572.52 523.788C1615.69 523.788 1639.81 541.504 1667.6 559.368C1695.37 577.215 1726.9 595.286 1785.01 596.287C1814.08 594.414 1835.15 589.009 1851.93 582.074C1868.72 575.136 1881.23 566.662 1893.18 558.618C1905.13 550.579 1916.53 542.959 1931.04 537.811C1945.56 532.66 1963.17 529.99 1987.56 531.79C2010.98 533.519 2026.85 546.635 2045.58 562.191C2064.33 577.758 2086.03 595.848 2121.18 607.816L2121.02 608.788V608.288C2121.02 608.729 2121.02 608.782 2121.02 608.788H2120.96C2120.92 608.788 2120.86 608.789 2120.78 608.789C2120.62 608.79 2120.39 608.791 2120.08 608.792C2119.47 608.795 2118.56 608.801 2117.4 608.814C2115.07 608.839 2111.72 608.89 2107.64 608.991C2099.46 609.194 2088.33 609.6 2076.49 610.412C2064.66 611.224 2052.13 612.441 2041.16 614.266C2030.17 616.093 2020.81 618.521 2015.27 621.722L2015.26 621.729L2015.25 621.736C1992.78 632.968 1966.78 650.292 1938.09 669.881C1909.42 689.463 1878.08 711.301 1844.97 731.528C1778.77 771.974 1705.41 806.045 1632 802.788H1631.99C1408.33 790.279 1264.14 682.683 1204.06 533.476L1204.84 532.907C1227.56 552.178 1245.87 566.355 1267.04 576.614C1288.21 586.869 1312.29 593.22 1346.56 596.789C1394.9 599.027 1424.91 581.974 1456.08 563.733C1487.27 545.48 1519.62 526.045 1572.5 523.789L1572.51 523.788H1572.52ZM1458.76 105.926C1591.96 23.819 1751.96 -15.7307 1874.11 5.79611L1875.13 5.97677L1874.35 6.6633C1810.46 63.0694 1788.32 129.253 1807.31 191.706C1826.29 254.11 1886.37 312.948 1987.31 354.657C2017.29 302.166 2041.75 264.159 2070.03 237.681C2098.39 211.117 2130.57 196.173 2175.95 189.793L2177.14 189.627L2176.42 190.588C2084.04 314.431 2081.58 469.664 2176.4 576.957L2177.31 577.991L2175.95 577.783C2113.55 568.262 2084.2 542.612 2061.53 518.71C2038.85 494.806 2022.99 472.876 1987.49 470.287C1937.63 467.296 1910.1 480.873 1883.52 496.346C1856.91 511.838 1831.2 529.274 1785.07 533.786L1785.05 533.788H1785.02C1744.62 533.788 1712.24 514.803 1679.62 495.546C1646.98 476.271 1614.08 456.72 1572.51 455.288C1523.16 455.292 1492.54 473.507 1461.31 492.453C1430.06 511.41 1398.22 531.098 1346.55 533.788L1346.51 533.79L1346.47 533.785C1312.43 530.02 1287.81 523.85 1266.21 512.735C1244.61 501.62 1226.07 485.578 1204.16 462.13L1204 461.964L1204.02 461.738C1219.05 312.776 1325.56 188.034 1458.76 105.926ZM1389.02 320.79C1366.93 320.79 1349.02 338.699 1349.02 360.79C1349.02 382.882 1366.93 400.79 1389.02 400.79C1411.11 400.79 1429.02 382.881 1429.02 360.79C1429.02 338.699 1411.11 320.791 1389.02 320.79Z" fill="#042C5F"/>
<path d="M26.8228 1221V1192.63C36.4515 1192.29 43.845 1190.74 49.0032 1187.99C54.1614 1184.89 57.7722 1179.73 59.8355 1172.51C61.8988 1164.95 62.9304 1154.63 62.9304 1141.56V935.75C62.9304 927.153 63.1023 918.9 63.4462 910.991C64.134 903.081 64.6498 896.891 64.9937 892.421C59.1477 892.765 52.442 893.109 44.8766 893.453C37.3112 893.453 31.2933 893.625 26.8228 893.968V859.924H278.544L281.124 956.899H252.753C252.753 937.298 249.486 922.683 242.953 913.054C236.419 903.081 228.166 896.376 218.193 892.937C208.221 889.498 198.076 887.951 187.76 888.294L162.484 888.81C153.543 889.154 146.494 890.874 141.335 893.968C136.521 897.063 133.082 902.394 131.019 909.959C128.956 917.18 127.924 927.153 127.924 939.877V1029.63H192.918L190.339 985.269H224.383V1104.94H196.529C196.529 1090.15 194.293 1079.49 189.823 1072.96C185.352 1066.43 178.991 1062.47 170.737 1061.1C162.828 1059.38 153.371 1058.86 142.367 1059.55L127.924 1060.06V1144.14C127.924 1153.43 127.752 1162.02 127.408 1169.93C127.064 1177.84 126.549 1184.03 125.861 1188.5C130.331 1188.16 135.489 1187.99 141.335 1187.99C147.525 1187.64 153.543 1187.47 159.389 1187.47C165.579 1187.13 170.394 1186.96 173.832 1186.96V1221H26.8228ZM307.785 1193.66C317.758 1193.66 324.807 1191.6 328.934 1187.47C333.06 1183 335.64 1176.81 336.671 1168.9C337.703 1160.99 338.219 1152.05 338.219 1142.08V1045.62C338.219 1039.77 338.391 1033.41 338.734 1026.53C339.078 1019.31 339.594 1011.92 340.282 1004.35C334.436 1004.7 328.074 1005.04 321.197 1005.39C314.319 1005.73 308.645 1006.07 304.174 1006.42V972.889C319.649 972.889 332.373 972.202 342.345 970.826C352.662 969.107 360.571 967.043 366.073 964.636C371.919 962.229 376.046 959.994 378.453 957.93H401.665V1147.24C401.665 1152.74 401.493 1159.45 401.149 1167.35C401.149 1174.92 400.633 1182.31 399.602 1189.54C405.104 1188.85 410.95 1188.5 417.14 1188.5C423.673 1188.16 429.004 1187.99 433.13 1187.99V1221H307.785V1193.66ZM367.105 913.57C357.132 913.57 348.707 909.959 341.829 902.737C334.952 895.172 331.513 886.059 331.513 875.399C331.513 864.738 334.952 855.626 341.829 848.06C349.051 840.495 357.476 836.712 367.105 836.712C377.077 836.712 385.33 840.495 391.864 848.06C398.742 855.626 402.181 864.738 402.181 875.399C402.181 886.059 398.914 895.172 392.38 902.737C385.846 909.959 377.421 913.57 367.105 913.57ZM582.989 1229.25C567.17 1229.25 552.383 1227.19 538.628 1223.06C524.873 1218.94 513.868 1213.95 505.615 1208.1L507.163 1224.61H473.634L471.055 1135.89H498.91C499.941 1147.58 504.068 1158.24 511.289 1167.87C518.511 1177.16 527.796 1184.55 539.144 1190.05C550.836 1195.21 563.731 1197.79 577.83 1197.79C584.708 1197.79 591.242 1196.76 597.432 1194.69C603.966 1192.63 609.296 1189.36 613.422 1184.89C617.893 1180.08 620.128 1174.06 620.128 1166.84C620.128 1159.27 617.549 1153.08 612.391 1148.27C607.576 1143.45 600.699 1138.98 591.758 1134.86C582.817 1130.73 572.328 1126.43 560.293 1121.96C549.632 1117.84 538.972 1113.54 528.311 1109.07C517.651 1104.6 507.851 1099.27 498.91 1093.08C489.969 1086.54 482.747 1078.63 477.245 1069.35C471.743 1060.06 468.992 1048.72 468.992 1035.3C468.992 1026.02 470.711 1016.73 474.15 1007.45C477.589 998.165 483.091 989.568 490.656 981.658C498.222 973.405 507.851 966.871 519.542 962.057C531.578 957.243 546.193 954.836 563.387 954.836C572.672 954.836 583.161 956.383 594.853 959.478C606.545 962.229 616.861 967.043 625.802 973.921L625.286 957.415H658.815V1048.2H630.96C629.241 1036.16 625.458 1025.5 619.612 1016.22C613.766 1006.59 606.029 999.024 596.4 993.522C586.771 988.02 575.251 985.269 561.84 985.269C550.836 985.269 541.551 988.02 533.986 993.522C526.42 998.681 522.637 1006.42 522.637 1016.73C522.637 1025.33 525.56 1032.38 531.406 1037.88C537.252 1043.39 545.162 1048.03 555.134 1051.81C565.107 1055.59 575.939 1059.72 587.631 1064.19C603.794 1069.69 618.409 1076.23 631.476 1083.79C644.887 1091.36 655.548 1100.47 663.457 1111.13C671.366 1121.79 675.321 1135.03 675.321 1150.85C675.321 1168.73 670.851 1183.52 661.91 1195.21C652.969 1206.56 641.449 1215.15 627.35 1221C613.25 1226.5 598.463 1229.25 582.989 1229.25ZM838.083 1229.25C815.043 1229.25 793.723 1224.1 774.121 1213.78C754.864 1203.46 739.389 1188.5 727.697 1168.9C716.349 1148.96 710.675 1125.06 710.675 1097.2C710.675 1078.29 713.942 1060.41 720.476 1043.56C727.009 1026.36 736.122 1011.23 747.814 998.165C759.85 984.753 774.121 974.265 790.628 966.699C807.134 958.79 825.36 954.836 845.305 954.836C866.282 954.836 883.992 958.102 898.435 964.636C912.878 970.826 923.882 979.251 931.447 989.912C939.013 1000.23 942.795 1011.23 942.795 1022.92C942.795 1032.21 940.044 1040.29 934.542 1047.17C929.384 1054.05 921.819 1057.66 911.846 1058C900.154 1058.34 891.901 1055.08 887.087 1048.2C882.616 1040.98 880.381 1034.27 880.381 1028.08C880.381 1024.64 880.897 1021.03 881.928 1017.25C882.96 1013.12 884.679 1009.34 887.087 1005.9C884.679 999.712 880.725 995.242 875.223 992.491C869.72 989.396 864.046 987.332 858.2 986.301C852.354 985.269 847.712 984.925 844.273 985.269C825.36 985.957 809.713 994.554 797.333 1011.06C784.954 1027.57 778.764 1051.64 778.764 1083.28C778.764 1102.19 781.343 1119.73 786.501 1135.89C792.003 1151.71 800.256 1164.6 811.261 1174.58C822.265 1184.2 836.364 1189.19 853.558 1189.54C868.689 1189.88 883.304 1186.27 897.403 1178.7C911.502 1170.79 923.022 1160.65 931.963 1148.27L952.596 1167.35C941.248 1183.52 929.04 1196.07 915.973 1205.01C902.905 1213.95 889.666 1220.14 876.254 1223.58C863.187 1227.36 850.463 1229.25 838.083 1229.25ZM1142.64 1193.66C1152.62 1193.66 1159.67 1191.6 1163.79 1187.47C1167.92 1183 1170.5 1176.81 1171.53 1168.9C1172.56 1160.99 1173.08 1152.05 1173.08 1142.08V1068.83C1172.73 1044.07 1168.78 1025.68 1161.21 1013.64C1153.65 1001.6 1141.78 995.586 1125.62 995.586C1115.65 995.586 1105.68 997.821 1095.7 1002.29C1086.08 1006.76 1078.17 1012.26 1071.98 1018.8V1147.24C1071.98 1152.74 1071.8 1159.45 1071.46 1167.35C1071.12 1174.92 1070.43 1182.31 1069.4 1189.54C1075.24 1188.85 1081.26 1188.5 1087.45 1188.5C1093.64 1188.16 1098.8 1187.99 1102.93 1187.99V1221H977.581V1193.66C987.554 1193.66 994.603 1191.6 998.73 1187.47C1003.2 1183 1005.78 1176.81 1006.47 1168.9C1007.5 1160.99 1008.01 1152.05 1008.01 1142.08V919.244C1008.01 913.398 1008.19 907.036 1008.53 900.158C1008.87 892.937 1009.39 885.543 1010.08 877.978C1004.23 878.322 997.87 878.666 990.993 879.01C984.115 879.353 978.441 879.697 973.97 880.041V846.513C989.789 846.513 1002.68 845.825 1012.66 844.449C1022.63 842.73 1030.37 840.667 1035.87 838.26C1041.72 835.852 1045.84 833.617 1048.25 831.554H1071.98V985.269C1078.85 979.423 1086.76 974.265 1095.7 969.794C1104.99 965.324 1114.45 961.713 1124.07 958.962C1133.7 956.211 1142.47 954.836 1150.38 954.836C1181.33 954.836 1203.34 963.948 1216.41 982.174C1229.82 1000.4 1236.52 1029.46 1236.52 1069.35L1237.04 1147.24C1237.04 1152.74 1236.87 1159.45 1236.52 1167.35C1236.18 1174.92 1235.66 1182.31 1234.98 1189.54C1240.48 1188.85 1246.15 1188.5 1252 1188.5C1258.19 1188.16 1263.52 1187.99 1267.99 1187.99V1221H1142.64V1193.66ZM1424.93 1229.25C1400.17 1229.25 1378.16 1223.75 1358.91 1212.75C1339.65 1201.4 1324.69 1185.58 1314.03 1165.29C1303.37 1144.66 1298.04 1120.41 1298.04 1092.56C1298.04 1068.49 1303.37 1045.96 1314.03 1024.99C1324.69 1004.01 1339.65 987.16 1358.91 974.437C1378.51 961.369 1401.2 954.836 1427 954.836C1441.44 954.836 1455.37 956.899 1468.78 961.025C1482.19 965.152 1494.22 972.03 1504.89 981.658C1515.55 991.287 1523.97 1004.01 1530.16 1019.83C1536.69 1035.65 1539.79 1054.91 1539.45 1077.6L1366.13 1080.7C1366.13 1102.02 1368.54 1120.93 1373.35 1137.44C1378.51 1153.6 1386.76 1166.49 1398.11 1176.12C1409.46 1185.41 1424.42 1190.05 1442.99 1190.05C1451.24 1190.05 1460.01 1188.68 1469.29 1185.92C1478.92 1182.83 1488.38 1178.36 1497.66 1172.51C1506.95 1166.32 1515.2 1158.76 1522.42 1149.82L1542.02 1167.87C1530.68 1184.38 1518.12 1197.1 1504.37 1206.04C1490.61 1214.98 1476.86 1221 1463.1 1224.1C1449.35 1227.53 1436.62 1229.25 1424.93 1229.25ZM1368.71 1049.75H1476C1475.66 1035.99 1473.59 1024.47 1469.81 1015.19C1466.37 1005.56 1461.21 998.337 1454.33 993.522C1447.46 988.364 1439.03 985.785 1429.06 985.785C1412.21 985.785 1398.63 991.459 1388.31 1002.81C1378.34 1013.81 1371.8 1029.46 1368.71 1049.75ZM1785.95 1226.6C1775.92 1226.6 1765.88 1225.32 1755.85 1222.75C1746.05 1220.18 1737.18 1216.33 1729.25 1211.2C1721.32 1205.83 1714.9 1198.95 1710 1190.55C1705.33 1182.15 1703 1172.12 1703 1160.45C1703 1144.82 1708.13 1131.05 1718.4 1119.15C1728.67 1107.25 1741.85 1098.15 1757.95 1091.85C1750.25 1083.22 1744.3 1075.28 1740.1 1068.05C1736.13 1060.82 1733.45 1053.93 1732.05 1047.4C1730.65 1040.63 1729.95 1033.87 1729.95 1027.1C1730.18 1009.83 1736.37 996.067 1748.5 985.8C1760.63 975.534 1776.5 970.4 1796.1 970.4C1808.23 970.4 1818.73 972.85 1827.6 977.75C1836.7 982.65 1843.7 989.067 1848.6 997C1853.5 1004.93 1855.95 1013.68 1855.95 1023.25C1855.95 1032.58 1853.73 1041.45 1849.3 1049.85C1844.87 1058.02 1838.68 1065.72 1830.75 1072.95C1822.82 1079.95 1813.72 1086.37 1803.45 1092.2C1806.02 1095 1810.45 1099.67 1816.75 1106.2C1823.05 1112.73 1830.28 1119.97 1838.45 1127.9C1846.62 1135.83 1854.67 1143.53 1862.6 1151C1863.53 1147.73 1864.12 1144.47 1864.35 1141.2C1864.82 1137.93 1865.05 1134.78 1865.05 1131.75C1865.05 1125.68 1864.35 1120.55 1862.95 1116.35C1861.55 1112.15 1859.22 1108.88 1855.95 1106.55C1852.92 1103.98 1848.83 1102.58 1843.7 1102.35V1083.8H1903.55V1105.85L1880.8 1104.8C1882.9 1107.6 1884.42 1111.1 1885.35 1115.3C1886.52 1119.27 1887.1 1123.7 1887.1 1128.6C1887.1 1134.67 1886.52 1140.97 1885.35 1147.5C1884.42 1154.03 1882.78 1160.45 1880.45 1166.75C1881.85 1167.92 1883.25 1169.32 1884.65 1170.95C1886.28 1172.35 1887.92 1173.75 1889.55 1175.15C1899.12 1183.32 1907.63 1189.85 1915.1 1194.75C1922.8 1199.42 1928.75 1201.75 1932.95 1201.75V1221H1897.25C1895.38 1221 1891.07 1219.13 1884.3 1215.4C1877.53 1211.67 1869.37 1205.83 1859.8 1197.9C1851.4 1206.53 1841.02 1213.53 1828.65 1218.9C1816.28 1224.03 1802.05 1226.6 1785.95 1226.6ZM1795.05 1204.2C1805.78 1204.43 1815.23 1202.68 1823.4 1198.95C1831.57 1195.22 1838.45 1190.32 1844.05 1184.25C1841.48 1181.92 1838.92 1179.7 1836.35 1177.6C1834.02 1175.27 1831.57 1172.93 1829 1170.6C1814.77 1157.3 1802.87 1145.87 1793.3 1136.3C1783.73 1126.5 1775.22 1117.28 1767.75 1108.65C1762.15 1112.38 1757.83 1117.05 1754.8 1122.65C1751.77 1128.02 1749.55 1133.38 1748.15 1138.75C1746.98 1144.12 1746.4 1148.78 1746.4 1152.75C1746.4 1163.95 1748.5 1173.4 1752.7 1181.1C1756.9 1188.8 1762.62 1194.52 1769.85 1198.25C1777.08 1201.98 1785.48 1203.97 1795.05 1204.2ZM1790.15 1076.8C1800.42 1069.57 1808.12 1060.82 1813.25 1050.55C1818.38 1040.05 1820.95 1030.72 1820.95 1022.55C1820.95 1013.22 1818.62 1005.52 1813.95 999.45C1809.28 993.384 1802.75 990.35 1794.35 990.35C1786.65 990.35 1780.23 993.384 1775.1 999.45C1769.97 1005.28 1767.4 1013.8 1767.4 1025C1767.4 1033.17 1769.62 1041.92 1774.05 1051.25C1778.48 1060.58 1783.85 1069.1 1790.15 1076.8ZM2280.85 1226.16C2268.12 1195.55 2255.23 1165.29 2242.16 1135.37C2229.43 1105.11 2216.71 1074.68 2203.99 1044.07C2200.55 1036.16 2196.59 1026.36 2192.12 1014.67C2187.65 1002.98 2183.18 990.083 2178.71 975.984C2174.24 961.885 2169.94 947.442 2165.82 932.655C2166.5 946.754 2166.85 960.166 2166.85 972.889C2167.19 985.269 2167.19 997.305 2166.85 1009C2166.85 1018.28 2166.68 1028.43 2166.33 1039.43C2166.33 1050.43 2166.16 1061.78 2165.82 1073.47C2165.47 1085.17 2165.13 1097.03 2164.78 1109.07C2164.78 1120.76 2164.78 1132.11 2164.78 1143.11C2164.44 1151.71 2164.1 1160.13 2163.75 1168.39C2163.41 1176.64 2162.89 1183.35 2162.21 1188.5C2168.4 1188.16 2175.27 1187.82 2182.84 1187.47C2190.75 1187.13 2196.94 1186.96 2201.41 1186.96V1221H2089.99V1192.63C2098.93 1192.29 2105.98 1190.91 2111.14 1188.5C2116.3 1185.75 2120.08 1181.11 2122.49 1174.58C2124.89 1168.04 2126.1 1158.76 2126.1 1146.72L2131.77 936.782C2132.12 928.185 2132.29 919.932 2132.29 912.022C2132.63 904.113 2132.98 897.579 2133.32 892.421C2127.82 892.765 2121.28 893.109 2113.72 893.453C2106.15 893.453 2099.96 893.625 2095.15 893.968V859.924H2197.8L2279.3 1061.1C2282.74 1070.04 2286.35 1079.66 2290.13 1089.98C2294.26 1100.3 2298.21 1110.44 2301.99 1120.41C2305.78 1130.39 2309.04 1139.16 2311.79 1146.72H2312.31C2316.78 1135.72 2321.08 1124.37 2325.21 1112.68C2329.33 1100.64 2333.46 1089.47 2337.59 1079.15C2351.34 1042.7 2365.27 1006.42 2379.37 970.31C2393.81 933.859 2408.25 897.063 2422.7 859.924H2527.41V888.294C2519.5 888.294 2512.62 889.498 2506.78 891.905C2501.27 894.312 2497.15 898.955 2494.4 905.832C2491.64 912.366 2490.44 922.683 2490.78 936.782L2500.59 1146.72C2501.27 1154.97 2501.27 1162.88 2500.59 1170.45C2500.24 1178.01 2499.9 1184.03 2499.55 1188.5C2505.4 1187.82 2512.11 1187.47 2519.67 1187.47C2527.58 1187.13 2533.77 1186.96 2538.24 1186.96V1221H2404.13V1192.63C2412.72 1192.29 2419.77 1190.74 2425.28 1187.99C2430.78 1185.24 2434.73 1180.42 2437.14 1173.54C2439.55 1166.32 2440.41 1155.83 2439.72 1142.08L2433.53 1012.61C2433.53 1008.14 2433.18 1001.6 2432.5 993.006C2431.81 984.409 2431.29 975.125 2430.95 965.152C2430.61 955.179 2430.26 945.723 2429.92 936.782C2428.89 939.189 2427.68 941.596 2426.31 944.003C2425.28 946.41 2424.42 948.818 2423.73 951.225L2317.98 1226.16H2280.85ZM2694.29 1229.25C2669.53 1229.25 2647.52 1223.75 2628.26 1212.75C2609.01 1201.4 2594.05 1185.58 2583.39 1165.29C2572.73 1144.66 2567.4 1120.41 2567.4 1092.56C2567.4 1068.49 2572.73 1045.96 2583.39 1024.99C2594.05 1004.01 2609.01 987.16 2628.26 974.437C2647.87 961.369 2670.56 954.836 2696.35 954.836C2710.8 954.836 2724.72 956.899 2738.13 961.025C2751.55 965.152 2763.58 972.03 2774.24 981.658C2784.9 991.287 2793.33 1004.01 2799.52 1019.83C2806.05 1035.65 2809.15 1054.91 2808.8 1077.6L2635.49 1080.7C2635.49 1102.02 2637.89 1120.93 2642.71 1137.44C2647.87 1153.6 2656.12 1166.49 2667.47 1176.12C2678.81 1185.41 2693.77 1190.05 2712.34 1190.05C2720.6 1190.05 2729.37 1188.68 2738.65 1185.92C2748.28 1182.83 2757.74 1178.36 2767.02 1172.51C2776.31 1166.32 2784.56 1158.76 2791.78 1149.82L2811.38 1167.87C2800.03 1184.38 2787.48 1197.1 2773.73 1206.04C2759.97 1214.98 2746.22 1221 2732.46 1224.1C2718.7 1227.53 2705.98 1229.25 2694.29 1229.25ZM2638.06 1049.75H2745.36C2745.01 1035.99 2742.95 1024.47 2739.17 1015.19C2735.73 1005.56 2730.57 998.337 2723.69 993.522C2716.81 988.364 2708.39 985.785 2698.42 985.785C2681.57 985.785 2667.98 991.459 2657.67 1002.81C2647.69 1013.81 2641.16 1029.46 2638.06 1049.75ZM3006.91 1193.66C3016.88 1193.66 3023.93 1191.6 3028.06 1187.47C3032.19 1183 3034.76 1176.81 3035.8 1168.9C3036.83 1160.99 3037.34 1152.05 3037.34 1142.08V1068.83C3037 1044.07 3033.05 1025.68 3025.48 1013.64C3017.91 1001.6 3006.05 995.586 2989.89 995.586C2979.92 995.586 2969.94 997.821 2959.97 1002.29C2950.34 1006.76 2942.43 1012.26 2936.24 1018.8V1147.24C2936.24 1152.74 2936.07 1159.45 2935.73 1167.35C2935.38 1174.92 2934.69 1182.31 2933.66 1189.54C2939.51 1188.85 2945.53 1188.5 2951.72 1188.5C2957.91 1188.16 2963.07 1187.99 2967.19 1187.99V1221H2841.85V1193.66C2851.82 1193.66 2858.87 1191.6 2863 1187.47C2867.47 1183 2870.05 1176.81 2870.73 1168.9C2871.76 1160.99 2872.28 1152.05 2872.28 1142.08V919.244C2872.28 913.398 2872.45 907.036 2872.8 900.158C2873.14 892.937 2873.66 885.543 2874.34 877.978C2868.5 878.322 2862.14 878.666 2855.26 879.01C2848.38 879.353 2842.71 879.697 2838.24 880.041V846.513C2854.05 846.513 2866.95 845.825 2876.92 844.449C2886.9 842.73 2894.63 840.667 2900.13 838.26C2905.98 835.852 2910.11 833.617 2912.51 831.554H2936.24V985.269C2943.12 979.423 2951.03 974.265 2959.97 969.794C2969.26 965.324 2978.71 961.713 2988.34 958.962C2997.97 956.211 3006.74 954.836 3014.65 954.836C3045.6 954.836 3067.61 963.948 3080.67 982.174C3094.08 1000.4 3100.79 1029.46 3100.79 1069.35L3101.31 1147.24C3101.31 1152.74 3101.13 1159.45 3100.79 1167.35C3100.45 1174.92 3099.93 1182.31 3099.24 1189.54C3104.74 1188.85 3110.42 1188.5 3116.26 1188.5C3122.45 1188.16 3127.78 1187.99 3132.26 1187.99V1221H3006.91V1193.66ZM3165.92 1193.66C3175.89 1193.66 3182.94 1191.6 3187.07 1187.47C3191.19 1183 3193.77 1176.81 3194.8 1168.9C3195.83 1160.99 3196.35 1152.05 3196.35 1142.08V1045.1C3196.35 1038.91 3196.52 1032.38 3196.87 1025.5C3197.21 1018.63 3197.73 1011.58 3198.41 1004.35C3192.57 1004.7 3186.21 1005.04 3179.33 1005.39C3172.45 1005.39 3166.78 1005.56 3162.31 1005.9V972.889H3181.39C3195.15 972.889 3206.67 971.342 3215.95 968.247C3225.24 964.808 3231.77 961.369 3235.55 957.93H3257.22C3257.91 962.057 3258.42 968.591 3258.76 977.532C3259.11 986.473 3259.28 995.414 3259.28 1004.35C3267.19 994.038 3275.44 985.269 3284.04 978.048C3292.64 970.482 3301.41 964.808 3310.35 961.025C3319.63 956.899 3329.09 954.836 3338.72 954.836C3349.72 954.836 3359.35 957.931 3367.6 964.12C3376.2 970.31 3380.5 980.283 3380.5 994.038C3380.5 998.509 3379.3 1003.32 3376.89 1008.48C3374.83 1013.64 3371.39 1017.94 3366.57 1021.38C3362.1 1024.82 3355.91 1026.53 3348 1026.53C3340.78 1026.53 3333.9 1024.3 3327.37 1019.83C3321.18 1015.01 3317.91 1007.45 3317.57 997.133C3310.35 996.789 3302.78 999.368 3294.87 1004.87C3287.31 1010.37 3280.43 1017.08 3274.24 1024.99C3268.05 1032.9 3263.24 1040.98 3259.8 1049.23L3260.31 1147.24C3260.31 1152.74 3260.14 1159.45 3259.8 1167.35C3259.45 1174.92 3258.94 1182.31 3258.25 1189.54C3263.75 1188.85 3269.6 1188.5 3275.79 1188.5C3281.98 1188.16 3287.14 1187.99 3291.26 1187.99V1221H3165.92V1193.66Z" fill="#042C5F"/>
</svg>
