<svg xmlns="http://www.w3.org/2000/svg" viewBox="0 0 100 100">
  <rect width="100" height="100" rx="20" fill="#0a3354"/>
  <g transform="translate(10.5,18) scale(0.082)" fill="#f7f2e8">
    <path d="M368.521 523.788C411.688 523.788 435.807 541.504 463.604 559.368C491.373 577.215 522.902 595.286 581.009 596.287C610.074 594.414 631.151 589.009 647.933 582.074C664.722 575.136 677.232 566.662 689.183 558.618C701.127 550.579 712.525 542.959 727.037 537.811C741.558 532.66 759.17 529.99 783.558 531.79C806.98 533.519 822.848 546.635 841.582 562.191C860.33 577.758 882.026 595.848 917.182 607.816L917.021 608.788V608.288C917.021 608.729 917.021 608.782 917.021 608.788H916.961C916.921 608.788 916.86 608.789 916.781 608.789C916.623 608.79 916.388 608.791 916.08 608.792C915.464 608.795 914.557 608.801 913.395 608.814C911.07 608.839 907.722 608.89 903.635 608.991C895.46 609.194 884.326 609.6 872.492 610.412C860.656 611.224 848.127 612.441 837.157 614.266C826.168 616.093 816.81 618.521 811.271 621.722L811.258 621.729L811.244 621.736C788.78 632.968 762.776 650.292 734.092 669.881C705.418 689.463 674.076 711.301 640.969 731.528C574.766 771.974 501.406 806.045 427.998 802.788H427.992C204.331 790.279 60.1404 682.683 0.0566406 533.476L0.84375 532.907C23.563 552.178 41.8646 566.355 63.0439 576.614C84.214 586.869 108.289 593.22 142.56 596.789C190.894 599.027 220.907 581.974 252.08 563.733C283.272 545.48 315.616 526.045 368.499 523.789L368.51 523.788H368.521ZM254.758 105.926C387.955 23.819 547.955 -15.7307 670.107 5.79611L671.13 5.97677L670.352 6.6633C606.458 63.0694 584.32 129.253 603.312 191.706C622.288 254.11 682.373 312.948 783.305 354.657C813.29 302.166 837.752 264.159 866.024 237.681C894.389 211.117 926.571 196.173 971.951 189.793L973.139 189.627L972.421 190.588C880.038 314.431 877.578 469.664 972.396 576.957L973.309 577.991L971.945 577.783C909.553 568.262 880.203 542.612 857.525 518.71C834.846 494.806 818.989 472.876 783.49 470.287C733.626 467.296 706.101 480.873 679.522 496.346C652.911 511.838 627.194 529.274 581.069 533.786L581.045 533.788H581.021C540.614 533.788 508.237 514.803 475.621 495.546C442.974 476.271 410.08 456.72 368.505 455.288C319.163 455.292 288.536 473.507 257.308 492.453C226.063 511.41 194.219 531.098 142.547 533.788L142.506 533.79L142.466 533.785C108.424 530.02 83.8042 523.85 62.2051 512.735C40.6069 501.62 22.0657 485.578 0.155273 462.13L0 461.964L0.0234375 461.738C15.0451 312.776 121.559 188.034 254.758 105.926ZM185.021 320.79C162.929 320.79 145.021 338.699 145.021 360.79C145.021 382.882 162.929 400.79 185.021 400.79C207.112 400.79 225.021 382.881 225.021 360.79C225.02 338.699 207.112 320.791 185.021 320.79Z"/>
  </g>
</svg>
